<svg xmlns="http://www.w3.org/2000/svg" width="28" height="24" viewBox="0 0 28 24">
  <path id="Fill_1" data-name="Fill 1" d="M26.772,24H1.3A1.287,1.287,0,0,1,.16,23.351a1.209,1.209,0,0,1,.017-1.229L12.91.628a1.286,1.286,0,0,1,2.21,0l12.7,21.494a1.231,1.231,0,0,1,.014,1.253A1.211,1.211,0,0,1,26.772,24ZM14,17.672a1.676,1.676,0,1,0,1.71,1.676A1.695,1.695,0,0,0,14,17.672ZM14,5.452a1.169,1.169,0,0,0-1.179,1.156v8.234a1.179,1.179,0,0,0,2.358,0V6.608A1.169,1.169,0,0,0,14,5.452Z" transform="translate(-0.001)" fill="#f0be4a"/>
</svg>
